<svg width="274" height="321" viewBox="0 0 274 321" fill="none" xmlns="http://www.w3.org/2000/svg">
<path d="M6.95312 254.203H7.23438L8.54688 255.516V256.172C7.39062 256.172 6.29688 262.305 5.26562 274.57L6.27344 274.898C11.4609 274.508 14.0547 274.078 14.0547 273.609C14.5391 261.984 15.1953 256.172 16.0234 256.172L16.9844 255.797C18.0781 256.078 18.625 256.414 18.625 256.805C17.3438 259.039 16.4609 265.93 15.9766 277.477C15.6953 289.352 14.9453 295.289 13.7266 295.289H13.375L12.4141 294.328L13.375 284.93H13.0469L13.375 284.648V281.367L13.7266 276.539L13.375 276.188C7.5625 276.609 4.65625 277.477 4.65625 278.789L3.34375 293.367V295.289L2.05469 296.297C1.41406 296.297 1.09375 295.867 1.09375 295.008H0.765625L2.6875 277.828L2.05469 275.859C3.08594 275.859 3.85156 270.805 4.35156 260.695C5.32031 256.367 6.1875 254.203 6.95312 254.203ZM22.8906 263.766C23.7188 263.766 24.4844 264.195 25.1875 265.055C25.1875 265.695 24.4219 266.445 22.8906 267.305C22.3125 267.305 21.7812 266.781 21.2969 265.734C21.7188 264.547 22.25 263.891 22.8906 263.766ZM22.8906 272.203L23.8984 273.516C23.0391 274.375 22.6094 276.742 22.6094 280.617C22.7031 284.711 23.3359 288.695 24.5078 292.57V293.227L23.5703 294.234H22.6094C21.5781 294.234 20.8047 289.148 20.2891 278.977C20.2891 274.461 20.9453 272.203 22.2578 272.203H22.8906ZM39.5781 267.891H40.1875L41.1953 268.852V270.469C39.6641 273.359 38.8984 276.93 38.8984 281.18L39.2969 300.281C39.2969 310.016 37.7734 314.883 34.7266 314.883C34.7266 315.305 34.1797 315.516 33.0859 315.516C30.4922 314.969 29.1953 313.781 29.1953 311.953V311.625H29.8281C31.2656 312.703 32.4688 313.242 33.4375 313.242C35.7969 313.242 36.9766 309.68 36.9766 302.555V286.711L36.6953 284.391H36.0156C34.3906 290.438 32.0234 293.461 28.9141 293.461H28.5391C27.8047 293.367 27.0703 291.758 26.3359 288.633C26.3359 282.133 28.3672 276.398 32.4297 271.43L37.3281 269.531C37.3281 268.438 38.0781 267.891 39.5781 267.891ZM28.9141 284.742V289.922C28.9141 290.562 29.3438 290.883 30.2031 290.883C31.9688 290.883 34.1328 285.695 36.6953 275.32V272.438C33.0078 272.438 30.5078 275.672 29.1953 282.141L28.9141 284.742ZM44.2188 255.398H45.1797L46.1406 256.359V256.711L45.5078 259.289V261.562L46.1406 277.781L46.4688 278.742H47.1016C48.5391 273.336 50.7031 270.633 53.5938 270.633C55.6719 270.633 56.8672 276.578 57.1797 288.469L57.8125 292.031L56.8516 293.672C55.7266 293.672 55.0703 292.578 54.8828 290.391V288.141C54.8828 278.422 54.0156 273.562 52.2812 273.562C49.625 274.578 48.0078 279.758 47.4297 289.102C47.5703 292.148 47.7969 293.672 48.1094 293.672C47.6562 294.625 47.2266 295.148 46.8203 295.242H45.8125C44.75 294.633 44.2188 293.773 44.2188 292.664L44.8516 291.07C43.9453 268.805 43.0781 257.672 42.25 257.672C42.6094 256.703 43.2656 255.945 44.2188 255.398ZM62.4531 256.172L63.5547 255.891L63.2969 261.797L63.2031 267.07L63.4609 282.234L63.1562 288.727L63.8359 292.617C63.8359 293.023 63.2734 293.68 62.1484 294.586L60.5781 293.273C61.0156 292.164 61.2344 289.891 61.2344 286.453V285.844L61.7266 257.227C62.1016 256.523 62.3438 256.172 62.4531 256.172ZM69.5781 263.766C70.4062 263.766 71.1719 264.195 71.875 265.055C71.875 265.695 71.1094 266.445 69.5781 267.305C69 267.305 68.4688 266.781 67.9844 265.734C68.4062 264.547 68.9375 263.891 69.5781 263.766ZM69.5781 272.203L70.5859 273.516C69.7266 274.375 69.2969 276.742 69.2969 280.617C69.3906 284.711 70.0234 288.695 71.1953 292.57V293.227L70.2578 294.234H69.2969C68.2656 294.234 67.4922 289.148 66.9766 278.977C66.9766 274.461 67.6328 272.203 68.9453 272.203H69.5781ZM86.2656 267.891H86.875L87.8828 268.852V270.469C86.3516 273.359 85.5859 276.93 85.5859 281.18L85.9844 300.281C85.9844 310.016 84.4609 314.883 81.4141 314.883C81.4141 315.305 80.8672 315.516 79.7734 315.516C77.1797 314.969 75.8828 313.781 75.8828 311.953V311.625H76.5156C77.9531 312.703 79.1562 313.242 80.125 313.242C82.4844 313.242 83.6641 309.68 83.6641 302.555V286.711L83.3828 284.391H82.7031C81.0781 290.438 78.7109 293.461 75.6016 293.461H75.2266C74.4922 293.367 73.7578 291.758 73.0234 288.633C73.0234 282.133 75.0547 276.398 79.1172 271.43L84.0156 269.531C84.0156 268.438 84.7656 267.891 86.2656 267.891ZM75.6016 284.742V289.922C75.6016 290.562 76.0312 290.883 76.8906 290.883C78.6562 290.883 80.8203 285.695 83.3828 275.32V272.438C79.6953 272.438 77.1953 275.672 75.8828 282.141L75.6016 284.742ZM90.9062 255.398H91.8672L92.8281 256.359V256.711L92.1953 259.289V261.562L92.8281 277.781L93.1562 278.742H93.7891C95.2266 273.336 97.3906 270.633 100.281 270.633C102.359 270.633 103.555 276.578 103.867 288.469L104.5 292.031L103.539 293.672C102.414 293.672 101.758 292.578 101.57 290.391V288.141C101.57 278.422 100.703 273.562 98.9688 273.562C96.3125 274.578 94.6953 279.758 94.1172 289.102C94.2578 292.148 94.4844 293.672 94.7969 293.672C94.3438 294.625 93.9141 295.148 93.5078 295.242H92.5C91.4375 294.633 90.9062 293.773 90.9062 292.664L91.5391 291.07C90.6328 268.805 89.7656 257.672 88.9375 257.672C89.2969 256.703 89.9531 255.945 90.9062 255.398ZM109.562 255.352L110.289 255.305L110.43 257.625V257.953C110.43 262.906 110.75 265.383 111.391 265.383L114.555 264.328C114.773 264.781 114.984 265.25 115.188 265.734C114.797 266.078 114.711 266.297 114.93 266.391L111.039 268.312L111.719 285.164V286.453C111.656 289.625 111.43 292.172 111.039 294.094L109.516 294L109.422 288.961V280.945V277.383C109.422 271.789 109.102 268.992 108.461 268.992L105.484 269.227L104.43 268.805L104.523 268.031L105.086 267.891H105.719C107.766 267.594 108.789 266.875 108.789 265.734L108.109 256.031L108.461 255.75L109.562 255.352ZM122.406 266.93C125.859 267.945 127.586 269.672 127.586 272.109V273.07C127.586 277.898 125.422 281.242 121.094 283.102H118.891V283.781C118.891 287.656 119.852 290.359 121.773 291.891H122.781C124 291.891 125.727 290.164 127.961 286.711L128.242 286.992H128.594C127.047 291.977 124.883 294.469 122.102 294.469C119.57 294.469 117.508 290.039 115.914 281.18C115.57 281.18 115.359 280.641 115.281 279.562C116.156 278.891 116.93 276.086 117.602 271.148C119.258 268.336 120.859 266.93 122.406 266.93ZM118.516 278.93C118.703 279.992 119.039 280.523 119.523 280.523H121.492C124.086 279.305 125.383 276.82 125.383 273.07V272.742C125.055 270.602 124.062 269.531 122.406 269.531C119.812 269.531 118.516 272.664 118.516 278.93ZM142.094 258.234C143.312 258.234 144.062 258.766 144.344 259.828L143.688 262.125C144.219 284.047 144.711 294.75 145.164 294.234L144.109 295.008C143.219 294.617 142.742 294.422 142.68 294.422L142.375 280.898L142.094 280.57H141.766C140.453 289.648 138.5 294.188 135.906 294.188H135.273C132.68 294.188 131.383 291.594 131.383 286.406C131.383 282.641 133.227 278.961 136.914 275.367C139.945 274.664 141.461 273.484 141.461 271.828V267.305L140.805 259.828C141.211 258.859 141.641 258.328 142.094 258.234ZM133.984 285.117V288.328C133.984 290 134.531 291.094 135.625 291.609H135.906C137.188 291.609 138.703 286.852 140.453 277.336L140.172 277.008H138.883C135.617 278.992 133.984 281.695 133.984 285.117ZM174.203 254.109L175.516 255.07L179.734 254.789C184.281 255.227 186.555 257.164 186.555 260.602C186.555 264.633 182.664 269.812 174.883 276.141C174.43 277.266 174.203 279.219 174.203 282V289.43L174.555 291.352C174.258 292.695 173.711 293.672 172.914 294.281L171.953 293.32H171.625L172.633 265.781V261.562C172.633 260.594 172.195 259.727 171.32 258.961C171.961 257.836 172.281 256.648 172.281 255.398L174.203 254.109ZM174.555 261.562V273.211H175.516C180.688 269.086 183.609 265.203 184.281 261.562C184.281 258.328 182.648 256.711 179.383 256.711C176.164 256.711 174.555 258.328 174.555 261.562ZM195.109 268.312H196.07L197.383 269.625V270.281L196.703 270.914L195.109 270.586C191.656 275.148 189.93 279.469 189.93 283.547V288.727L190.234 292.312C190.234 293.188 189.703 293.625 188.641 293.625V293.906C187.781 293.578 187.352 293.258 187.352 292.945V289.383C186.539 279.023 185.883 273.844 185.383 273.844C185.82 272.531 186.25 271.875 186.672 271.875H187C187.875 272.219 188.312 272.984 188.312 274.172V277.734H188.641C190.781 273.062 192.938 269.922 195.109 268.312ZM206.172 268.711C208.188 268.711 209.594 271.602 210.391 277.383L210.062 277.781V279.703C209.516 289.656 207.789 294.633 204.883 294.633L204.531 294.914H204.203C200.969 294.18 199.352 290.07 199.352 282.586C199.352 273.336 201.625 268.711 206.172 268.711ZM201.32 280.992C201.805 288.539 202.766 292.312 204.203 292.312H204.531C206.359 292.312 207.547 288.43 208.094 280.664V276.094C208.094 273.188 207.133 271.586 205.211 271.289C202.617 272.055 201.32 275.289 201.32 280.992ZM213.578 266.156C214.984 266.703 215.742 267.234 215.852 267.75V268.758L214.891 269.672H213.25C212.609 269.469 212.289 268.828 212.289 267.75L213.578 266.156ZM215.547 271.336L216.508 272.25L216.18 276.539C217.68 288.148 218.43 295.789 218.43 299.461V301.148C218.43 312.383 215.953 318 211 318C208.625 316.75 207.438 315.023 207.438 312.82V310.852H208.07L210.367 315.398L210.648 315.703H211.328C214.781 315.703 216.508 310.086 216.508 298.852C215.867 288.227 214.781 279.586 213.25 272.93C213.562 271.867 214.328 271.336 215.547 271.336ZM228.578 266.93C232.031 267.945 233.758 269.672 233.758 272.109V273.07C233.758 277.898 231.594 281.242 227.266 283.102H225.062V283.781C225.062 287.656 226.023 290.359 227.945 291.891H228.953C230.172 291.891 231.898 290.164 234.133 286.711L234.414 286.992H234.766C233.219 291.977 231.055 294.469 228.273 294.469C225.742 294.469 223.68 290.039 222.086 281.18C221.742 281.18 221.531 280.641 221.453 279.562C222.328 278.891 223.102 276.086 223.773 271.148C225.43 268.336 227.031 266.93 228.578 266.93ZM224.688 278.93C224.875 279.992 225.211 280.523 225.695 280.523H227.664C230.258 279.305 231.555 276.82 231.555 273.07V272.742C231.227 270.602 230.234 269.531 228.578 269.531C225.984 269.531 224.688 272.664 224.688 278.93ZM244.773 265.734L245.734 266.062V266.695C241.406 269.602 239.242 273.602 239.242 278.695L238.961 281.625V285.797C238.961 289.125 240.562 291.281 243.766 292.266C246.344 292.266 247.969 291.195 248.641 289.055H249.602L249.953 290.016C249.953 292.359 248.227 293.883 244.773 294.586C241.273 294.586 238.898 292.852 237.648 289.383C236.977 287.633 236.641 286 236.641 284.484V282.234C236.641 275.938 238.273 270.977 241.539 267.352L244.773 265.734ZM255.344 255.352L256.07 255.305L256.211 257.625V257.953C256.211 262.906 256.531 265.383 257.172 265.383L260.336 264.328C260.555 264.781 260.766 265.25 260.969 265.734C260.578 266.078 260.492 266.297 260.711 266.391L256.82 268.312L257.5 285.164V286.453C257.438 289.625 257.211 292.172 256.82 294.094L255.297 294L255.203 288.961V280.945V277.383C255.203 271.789 254.883 268.992 254.242 268.992L251.266 269.227L250.211 268.805L250.305 268.031L250.867 267.891H251.5C253.547 267.594 254.57 266.875 254.57 265.734L253.891 256.031L254.242 255.75L255.344 255.352ZM271.82 267.023L272.172 267.398V268.031C268.062 270.938 266.008 273.961 266.008 277.102V277.781C266.008 280.078 267.852 283.305 271.539 287.461L271.82 288.773C270.258 292.867 267.234 294.914 262.75 294.914C260.391 294.914 259.211 294.047 259.211 292.312L263.078 292.664H264.391C267.422 291.93 268.938 290.633 268.938 288.773V288.422C268.938 287.891 267.422 285.414 264.391 280.992L263.43 277.383C263.43 273.414 266.023 269.961 271.211 267.023H271.82Z" fill="black"/>
<path d="M119.589 221.605C123.632 217.726 125.016 207.027 125.016 207.027C125.016 207.027 123.162 215.612 119.589 221.605Z" fill="black"/>
<path d="M171.381 3.14821C167.6 11.44 161.188 17.3781 155.997 24.779C134.824 54.9611 122.722 100.288 115.886 134.704C115.27 137.805 110.59 225.456 117.851 222.742C123.244 220.727 125.016 207.027 125.016 207.027C125.016 207.027 121.284 224.304 114.208 226.948C107.349 229.511 65.8057 206.606 94.4128 219.649" stroke="black" stroke-width="3" stroke-linecap="round"/>
</svg>
