<svg width="127" height="127" viewBox="0 0 127 127" fill="none" xmlns="http://www.w3.org/2000/svg">
<path fill-rule="evenodd" clip-rule="evenodd" d="M63.5 127C98.5701 127 127 98.5701 127 63.5C127 28.4299 98.5701 0 63.5 0C28.4299 0 0 28.4299 0 63.5C0 98.5701 28.4299 127 63.5 127ZM61.804 40.8043C60.5753 33.2086 57.913 24.1594 54.9142 18.0191C54.1608 16.4765 53.3707 15.0853 52.557 13.9331C51.7555 12.7981 50.8699 11.8068 49.8988 11.1568C48.9066 10.4928 47.6665 10.0922 46.3502 10.5088C45.0976 10.9051 44.1763 11.9213 43.486 13.1485C42.8651 14.2524 42.7933 15.6067 42.9298 16.9188C43.0704 18.2708 43.4606 19.8277 44.0186 21.5223C45.1359 24.9156 47.0142 29.1186 49.3034 33.8039C51.5512 38.4046 54.2273 43.5343 57.0276 48.9021L57.2028 49.2378C58.547 51.8146 59.9192 54.4463 61.2884 57.1053C54.8069 61.9042 50.1337 66.693 46.9449 71.3808C40.796 80.4202 40.205 89.0413 42.7738 96.3605C45.3138 103.597 50.8778 109.39 56.7686 113.058C59.723 114.898 62.8074 116.234 65.7085 116.952C68.5865 117.664 71.409 117.796 73.7658 117.077C77.7927 115.849 80.2859 113.217 81.4367 109.613C82.5494 106.128 82.3794 101.84 81.4528 97.1827C79.5965 87.8522 74.5297 76.2426 68.8665 64.7457C67.7794 62.5388 66.6673 60.3301 65.548 58.1364C70.8551 54.4508 77.354 50.7198 85.2398 47.0015C86.069 46.6104 86.4243 45.6213 86.0332 44.792C85.6422 43.9628 84.653 43.6075 83.8238 43.9985C75.9991 47.6882 69.4484 51.422 64.0194 55.1571C62.7179 52.633 61.4176 50.1393 60.1463 47.7022L59.9831 47.3894L59.9829 47.3891C57.1731 42.0031 54.5146 36.9071 52.2864 32.3464C50.0094 27.6862 48.215 23.6514 47.172 20.4839C46.6498 18.8981 46.3379 17.5939 46.232 16.5753C46.1218 15.5168 46.2589 14.9909 46.3796 14.7762C46.876 13.8938 47.2451 13.7078 47.3519 13.674C47.3947 13.6605 47.5827 13.6017 48.0522 13.9159C48.5428 14.2443 49.1526 14.8677 49.8451 15.8483C50.5255 16.8117 51.2281 18.0369 51.931 19.4761C54.7574 25.2632 57.338 33.9868 58.5266 41.3345C58.673 42.2395 59.5254 42.8545 60.4304 42.7081C61.3354 42.5617 61.9504 41.7093 61.804 40.8043ZM49.69 73.2481C52.5648 69.0219 56.8224 64.6039 62.8234 60.1019C63.8579 62.1331 64.8841 64.1741 65.8882 66.2127C71.5523 77.7116 76.4343 88.9723 78.1966 97.8305C79.0794 102.268 79.1361 105.903 78.274 108.603C77.45 111.183 75.7668 112.996 72.7969 113.902C71.2152 114.384 69.0472 114.357 66.5057 113.729C63.9874 113.106 61.2234 111.921 58.5235 110.24C53.1057 106.866 48.1376 101.618 45.9065 95.261C43.7043 88.9864 44.1033 81.4611 49.69 73.2481Z" fill="black"/>
</svg>
