<svg width="126" height="3909" viewBox="0 0 126 3909" fill="none" xmlns="http://www.w3.org/2000/svg">
<g style="mix-blend-mode:exclusion">
<path d="M47 -3.5V2031C46 2054.5 79.5 2196.76 79.5 2133C79.4999 2057 -13.1599 2133 47 2230.5C107.16 2328 -29.9188 2491 88.0812 2444C138.081 2424.08 138.573 2385 79.5 2394.5C20.4266 2404 116 2543.5 47 2512.5C-65.0148 2462.17 63.5001 2699.97 63.5001 2606.5C63.5001 2532.5 21.0001 2574 9.00007 2649.5C-2.99998 2725 188.034 2788.66 97.0002 2801.5C19 2812.5 97.0001 2724 63.5001 2667C30.0001 2610 16.5001 2890.5 63.5001 2945C110.5 2999.5 74.9999 2893.5 8.99985 2908C-21.4001 2942.8 97.0002 3115.39 47 3097C-15 3074.2 41.5 3255.67 47 3347V3909" stroke="white" stroke-width="2"/>
</g>
</svg>
