<svg width="87" height="112" viewBox="0 0 87 112" fill="none" xmlns="http://www.w3.org/2000/svg">
<path d="M18.1653 36.5065C15.748 21.5631 7.67954 0.960817 2.93282 9.39944C-3.00059 19.9477 59.2689 102.387 31.2813 110.927C14.1853 116.143 -42.5566 70.052 64.904 31.8146" stroke="white" stroke-width="1.31853" stroke-linecap="round"/>
<path d="M17.436 6.10302C24.0287 16.2118 36.4229 36.8249 33.2584 38.4071C29.3028 40.3849 17.436 5.44376 22.0509 1.48815C26.6658 -2.46745 33.9177 14.6735 26.6658 24.5625C19.4138 34.4515 26.2695 15.354 33.2584 19.2884C37.9428 21.9255 40.5799 35.4731 44.466 31.1552C50.3994 24.5625 41.8289 14.0142 44.466 24.5625C47.1031 35.1108 53.7653 29.8367 51.1282 19.2884C55.0838 29.2545 59.0394 24.6396 57.0616 12.7728C62.995 28.5952 76.9681 96.0974 61.6765 65.5142C53.106 48.3732 67.9798 30.7157 85.9998 21.9255" stroke="white" stroke-width="1.31853" stroke-linecap="round"/>
</svg>
